<?xml version="1.0" encoding="utf-8"?>
<!-- Generator: Adobe Illustrator 28.0.0, SVG Export Plug-In . SVG Version: 6.00 Build 0)  -->
<svg version="1.1" id="Layer_1" xmlns="http://www.w3.org/2000/svg" xmlns:xlink="http://www.w3.org/1999/xlink" x="0px" y="0px"
	 viewBox="0 0 2362 372" style="enable-background:new 0 0 2362 372;" xml:space="preserve">
<style type="text/css">
	.st0{font-family:'MicrosoftSansSerif';}
	.st1{font-size:100px;}
	.st2{font-size:65px;}
	.st3{font-size:55.8563px;}
	.st4{font-family:'TimesNewRomanPS-BoldMT';}
</style>
<path d="M1934.9,1h6.9v169h-6.9V1z"/>
<path d="M1440.4,1h6.9v169h-6.9V1z"/>
<path d="M1688.4,1h6.9v343h-6.9V1z"/>
<path d="M1193.5,1h6.9v343h-6.9V1z"/>
<path d="M430.1,0h7.1v342h-7.1V0z"/>
<path d="M686.3,0h6.9v342h-6.9V0z"/>
<path d="M688.8,166.2l0,7l-255,0.2l0-7L688.8,166.2z"/>
<path d="M1948.6,167.8l0,7l-754.8,0.5l0-7L1948.6,167.8z"/>
<text transform="matrix(0.7 0 0 1 37.4516 95.1283)" class="st0 st1">CALLSIGN</text>
<text transform="matrix(0.7 0 0 1 808.412 301.5775)" class="st0 st1">SID</text>
<text transform="matrix(1 0 0 1 473.2155 150.3378)" class="st0 st2">EOBT</text>
<text transform="matrix(1 0 0 1 1222.3774 319.8383)" class="st0 st2">ADEP</text>
<text transform="matrix(1 0 0 1 1493.0977 319.8378)" class="st0 st2">ADES</text>
<text transform="matrix(1 0 0 1 1959.6859 313.2919)" class="st0 st3">RFL</text>
<text transform="matrix(1 0 0 1 1720.2831 236.9999)" class="st0 st3">RTE</text>
<text transform="matrix(1 0 0 1 193.0201 242.4556)" class="st0 st2">ATYP</text>
<text transform="matrix(1 0 0 1 198.9182 172.5001)" class="st0 st2">TAS</text>
<text transform="matrix(1 0 0 1 231.8699 319.838)" class="st0 st2">ASSR</text>
<text transform="matrix(1 0 0 1 73.1394 241.6111)" class="st4 st2">FRUL</text>
</svg>
