<?xml version="1.0" encoding="utf-8"?>
<!-- Generator: Adobe Illustrator 28.0.0, SVG Export Plug-In . SVG Version: 6.00 Build 0)  -->
<svg version="1.1" id="Layer_1" xmlns="http://www.w3.org/2000/svg" xmlns:xlink="http://www.w3.org/1999/xlink" x="0px" y="0px"
	 viewBox="0 0 2686 372" style="enable-background:new 0 0 2686 372;" xml:space="preserve">
<style type="text/css">
	.st0{font-family:'MicrosoftSansSerif';}
	.st1{font-size:110px;}
	.st2{font-size:65px;}
	.st3{font-size:55.8563px;}
	.st4{font-family:'TimesNewRomanPS-BoldMT';}
</style>
<path d="M2237.1,1h7v169h-7V1z"/>
<path d="M1686.4,1h7v169h-7V1z"/>
<path d="M1962.6,1h7v343h-7V1z"/>
<path d="M1411.4,1h7v343h-7V1z"/>
<path d="M561.3,0h7v342h-7V0z"/>
<path d="M846.6,0h7v342h-7V0z"/>
<path d="M849,166.3v6.8l-284,0.2v-6.8L849,166.3z"/>
<path d="M2252,168.1v6.5l-840.6,0.5v-6.5L2252,168.1z"/>
<text transform="matrix(0.7 0 0 1 123.604 95.1284)" class="st0 st1">CALLSIGN</text>
<text transform="matrix(1 0 0 1 608.9082 150.3379)" class="st0 st2">ETA</text>
<text transform="matrix(1 0 0 1 1443.2393 319.8379)" class="st0 st2">ADEP</text>
<text transform="matrix(1 0 0 1 1444.3926 70.1689)" class="st0 st2">ZZGG</text>
<text transform="matrix(1 0 0 1 1744.7354 319.8379)" class="st0 st2">ADES</text>
<text transform="matrix(1 0 0 1 2258.7559 319.8379)" class="st0 st3">EOBT</text>
<text transform="matrix(1 0 0 1 312.8589 242.4551)" class="st0 st2">ATYP</text>
<text transform="matrix(1 0 0 1 348.1255 319.8379)" class="st0 st2">ASSR</text>
<text transform="matrix(1 0 0 1 163.3491 241.6113)" class="st4 st2">FRUL</text>
</svg>
